<?xml version="1.0" standalone="no"?>
<!DOCTYPE svg PUBLIC "-//W3C//DTD SVG 20010904//EN"
 "http://www.w3.org/TR/2001/REC-SVG-20010904/DTD/svg10.dtd">
<svg version="1.0" xmlns="http://www.w3.org/2000/svg"
 width="176.000000pt" height="180.000000pt" viewBox="0 0 176.000000 180.000000"
 preserveAspectRatio="xMidYMid meet">

<g transform="translate(0.000000,180.000000) scale(0.100000,-0.100000)"
fill="#fff" stroke="none">
<path d="M778 1631 c-25 -16 -49 -34 -52 -40 -4 -6 34 -32 89 -61 103 -56 135
-87 135 -132 0 -81 -84 -138 -205 -138 -89 0 -117 9 -233 78 -77 46 -98 54
-126 49 -33 -5 -166 -82 -166 -95 0 -7 248 -143 285 -157 98 -36 299 -47 398
-21 62 16 154 61 213 104 44 32 84 104 84 149 -1 70 -66 151 -166 208 -27 16
-70 41 -95 57 -59 36 -102 36 -161 -1z"/>
<path d="M645 1551 c-40 -17 -57 -48 -62 -115 -8 -98 -2 -111 62 -135 67 -25
110 -26 175 -5 87 28 122 85 83 133 -23 28 -180 121 -213 126 -14 3 -34 1 -45
-4z"/>
<path d="M1130 1552 c0 -5 14 -21 31 -38 68 -64 88 -158 50 -232 -56 -110
-204 -188 -406 -214 -80 -10 -102 -9 -199 10 -115 23 -192 54 -313 127 -81 50
-102 54 -126 27 -14 -16 -17 -44 -17 -183 l1 -164 21 40 c51 100 140 147 234
124 170 -41 325 -195 404 -401 40 -104 50 -164 50 -314 0 -135 12 -166 61
-166 23 0 245 118 279 149 12 11 5 13 -47 13 -97 0 -154 34 -199 120 -16 29
-19 56 -18 150 1 102 5 125 33 204 39 113 115 230 199 307 59 53 97 79 241
160 38 21 47 31 49 58 4 43 -16 65 -101 107 -37 19 -95 51 -130 72 -70 43 -97
55 -97 44z"/>
<path d="M1474 1271 c-5 -5 -40 -26 -79 -46 -271 -143 -435 -378 -435 -620 0
-93 14 -138 56 -185 66 -73 145 -77 265 -15 91 47 180 103 197 123 15 20 17
152 1 152 -10 0 -52 -22 -144 -75 -22 -13 -57 -27 -77 -30 -34 -7 -41 -4 -73
28 -31 31 -35 41 -35 86 0 67 32 149 79 202 23 27 78 66 136 99 54 30 104 65
113 78 11 18 15 47 13 115 -1 50 -3 92 -5 94 -1 1 -7 -1 -12 -6z"/>
<path d="M264 990 c-16 -11 -41 -41 -55 -67 -21 -43 -24 -64 -27 -186 -2 -76
-1 -149 2 -163 4 -15 27 -38 61 -59 84 -54 85 -54 85 81 0 91 4 122 17 145 34
57 105 61 186 9 38 -24 49 -39 76 -104 29 -69 33 -90 38 -213 7 -157 5 -154
112 -217 42 -24 67 -34 74 -27 14 14 2 305 -16 368 -8 28 -37 93 -63 145 -59
112 -177 238 -263 281 -70 35 -178 38 -227 7z"/>
<path d="M1293 910 c-45 -27 -90 -93 -109 -158 -14 -47 -14 -59 -2 -90 8 -22
25 -42 41 -50 30 -15 47 -8 174 66 80 47 93 63 93 116 0 40 -38 85 -101 116
-47 25 -56 25 -96 0z"/>
<path d="M376 728 c-19 -27 -23 -226 -5 -261 17 -34 51 -57 84 -57 39 0 136
51 154 82 29 50 -39 194 -112 238 -44 28 -101 26 -121 -2z"/>
</g>
</svg>
